<?xml version="1.0" standalone="no"?>
<!DOCTYPE svg PUBLIC "-//W3C//DTD SVG 20010904//EN"
 "http://www.w3.org/TR/2001/REC-SVG-20010904/DTD/svg10.dtd">
<svg version="1.0" xmlns="http://www.w3.org/2000/svg"
 width="103.000000pt" height="91.000000pt" viewBox="0 0 103.000000 91.000000"
 preserveAspectRatio="xMidYMid meet">
<metadata>
Created by potrace 1.15, written by Peter Selinger 2001-2017
</metadata>
<g fill="#000000" stroke="none" transform="translate(0.000000,91.000000) scale(0.100000,-0.100000)" >
<path d="M540 825 l0 -65 -80 0 -80 0 0 -45 0 -45 39 0 c21 0 44 -6 50 -14 8
-9 11 -73 9 -207 l-3 -194 -41 -3 c-38 -3 -42 -6 -48 -34 -13 -67 -13 -67 72
-70 l77 -3 3 -62 3 -63 39 0 40 0 0 65 0 65 30 0 30 0 0 -65 0 -65 40 0 40 0
0 64 c0 72 -8 65 97 81 92 14 145 78 146 175 0 69 -18 103 -68 127 l-34 16 24
29 c31 36 41 89 26 138 -17 59 -55 82 -163 105 -27 5 -28 8 -28 70 l0 65 -40
0 -40 0 0 -65 0 -65 -30 0 -30 0 0 65 0 65 -40 0 -40 0 0 -65z m232 -181 c52
-27 49 -96 -5 -119 -18 -7 -57 -15 -87 -16 l-55 -4 -3 69 c-4 98 -3 100 66 91
31 -4 69 -13 84 -21z m25 -241 c44 -20 61 -64 38 -99 -23 -36 -73 -54 -150
-54 l-65 0 0 84 c0 58 4 86 13 90 20 9 130 -5 164 -21z"/>
<path d="M20 565 c0 -8 5 -15 10 -15 6 0 10 -32 10 -75 0 -43 -4 -75 -10 -75
-5 0 -10 -4 -10 -10 0 -5 16 -10 35 -10 34 0 46 12 25 25 -11 7 -14 95 -2 95
4 -1 24 -28 44 -60 26 -41 44 -60 58 -60 18 0 20 6 20 84 0 67 3 85 16 90 25
10 6 26 -32 26 -24 0 -34 -5 -34 -15 0 -8 5 -15 10 -15 6 0 10 -21 10 -47 l0
-48 -41 63 c-37 56 -45 62 -75 62 -24 0 -34 -5 -34 -15z"/>
<path d="M224 519 c-3 -6 -1 -15 7 -19 7 -5 20 -32 29 -62 12 -40 21 -54 37
-56 17 -2 23 4 28 27 10 44 22 46 35 6 9 -28 17 -35 33 -33 16 2 25 16 37 55
8 28 18 55 23 59 15 15 6 34 -17 34 -27 0 -45 -18 -29 -29 7 -4 7 -14 0 -31
-10 -25 -10 -24 -22 15 -17 56 -42 58 -62 5 -14 -35 -18 -39 -24 -24 -4 11 -5
29 -2 42 5 20 1 22 -30 22 -20 0 -39 -5 -43 -11z"/>
</g>
</svg>
